<svg id="Layer_1" data-name="Layer 1" xmlns="http://www.w3.org/2000/svg" viewBox="0 0 640 264" class="logo"><defs><style>.logo{ width: 90%; height: auto;}.cls-1{fill:#b5b2fa;}.cls-2{fill:#8257fe;}.cls-3{fill:#f5f5f5;}</style></defs><path class="cls-1" d="M66.25,101.47a5.28,5.28,0,1,1-1.33-7.35A5.29,5.29,0,0,1,66.25,101.47Z"/><circle class="cls-1" cx="44.41" cy="98.23" r="4.53" transform="translate(-62.04 81.18) rotate(-56.57)"/><path class="cls-1" d="M31.21,106.73a3.77,3.77,0,1,1-.95-5.25A3.77,3.77,0,0,1,31.21,106.73Z"/><path class="cls-1" d="M17.52,118.86a3,3,0,1,1-.76-4.2A3,3,0,0,1,17.52,118.86Z"/><circle class="cls-1" cx="98.55" cy="80.72" r="5.28"/><path class="cls-1" d="M87.29,72.44A4.52,4.52,0,1,1,91,67.25,4.52,4.52,0,0,1,87.29,72.44Z"/><path class="cls-1" d="M71.28,64.38a3.77,3.77,0,1,1,3.11-4.33A3.77,3.77,0,0,1,71.28,64.38Z"/><path class="cls-1" d="M53,63a3,3,0,1,1,2.49-3.46A3,3,0,0,1,53,63Z"/><path class="cls-1" d="M133.61,99A5.28,5.28,0,1,1,141,97.91,5.29,5.29,0,0,1,133.61,99Z"/><path class="cls-1" d="M134.9,80.9a4.53,4.53,0,1,1,6.34-.92A4.53,4.53,0,0,1,134.9,80.9Z"/><path class="cls-1" d="M129.58,63.78a3.77,3.77,0,1,1,5.27-.77A3.78,3.78,0,0,1,129.58,63.78Z"/><path class="cls-1" d="M117.94,49.67a3,3,0,1,1,4.22-.61A3,3,0,0,1,117.94,49.67Z"/><path class="cls-1" d="M148,132.66a5.28,5.28,0,1,1,5.9,4.57A5.27,5.27,0,0,1,148,132.66Z"/><path class="cls-1" d="M161.89,121A4.53,4.53,0,1,1,167,125,4.52,4.52,0,0,1,161.89,121Z"/><path class="cls-1" d="M170.51,105.3a3.77,3.77,0,1,1,4.21,3.27A3.75,3.75,0,0,1,170.51,105.3Z"/><path class="cls-1" d="M172.57,87.13a3,3,0,1,1,3.37,2.61A3,3,0,0,1,172.57,87.13Z"/><path class="cls-1" d="M133.74,166.39a5.28,5.28,0,1,1,.82,7.43A5.3,5.3,0,0,1,133.74,166.39Z"/><circle class="cls-1" cx="155.3" cy="171.15" r="4.53"/><path class="cls-1" d="M169.07,163.59a3.77,3.77,0,1,1,.58,5.3A3.78,3.78,0,0,1,169.07,163.59Z"/><path class="cls-1" d="M183.57,152.45a3,3,0,1,1,.47,4.24A3,3,0,0,1,183.57,152.45Z"/><path class="cls-1" d="M99.59,179.58a5.28,5.28,0,1,1-4.78,5.74A5.29,5.29,0,0,1,99.59,179.58Z"/><path class="cls-1" d="M110.73,193.88a4.53,4.53,0,1,1-4.09,4.93A4.54,4.54,0,0,1,110.73,193.88Z"/><path class="cls-1" d="M126.14,203.05a3.77,3.77,0,1,1-3.41,4.1A3.76,3.76,0,0,1,126.14,203.05Z"/><path class="cls-1" d="M144.23,205.74A3,3,0,1,1,141.5,209,3,3,0,0,1,144.23,205.74Z"/><circle class="cls-1" cx="62.93" cy="168.17" r="5.28" transform="translate(-107.79 112.52) rotate(-51.43)"/><path class="cls-1" d="M63.82,182.12a4.52,4.52,0,1,1-6.38.48A4.52,4.52,0,0,1,63.82,182.12Z"/><path class="cls-1" d="M67.94,199.57a3.77,3.77,0,1,1-5.32.4A3.77,3.77,0,0,1,67.94,199.57Z"/><path class="cls-1" d="M78.57,214.46a3,3,0,1,1-4.25.31A3,3,0,0,1,78.57,214.46Z"/><path class="cls-1" d="M54.38,129.58a5.28,5.28,0,1,1-5.57-5A5.28,5.28,0,0,1,54.38,129.58Z"/><circle class="cls-1" cx="35.18" cy="140.47" r="4.53"/><path class="cls-1" d="M30,155.3a3.77,3.77,0,1,1-4-3.55A3.77,3.77,0,0,1,30,155.3Z"/><path class="cls-1" d="M26.69,173.28a3,3,0,1,1-3.19-2.84A3,3,0,0,1,26.69,173.28Z"/><polygon class="cls-2" points="114.31 83.85 65.75 141.43 95.87 141.43 86.24 180.15 135.21 122.37 106.11 122.37 114.31 83.85"/><path class="cls-3" d="M246.59,120.77a12.93,12.93,0,0,1,3.08,8.57,13.23,13.23,0,0,1-2,7.17,13.62,13.62,0,0,1-5.82,5,21,21,0,0,1-9.17,1.84H214.51V90.87h17.66q8,0,12.13,3.68a12.15,12.15,0,0,1,4.17,9.54,11.71,11.71,0,0,1-2.63,7.93,13.78,13.78,0,0,1-6.76,4.24A12.66,12.66,0,0,1,246.59,120.77Zm-26.82-6.68H232q5.32,0,8.22-2.52a8.74,8.74,0,0,0,2.9-6.95,8.52,8.52,0,0,0-2.9-6.84c-1.93-1.65-4.74-2.48-8.45-2.48h-12Zm21.45,22.16a9.22,9.22,0,0,0,3.19-7.44,9.37,9.37,0,0,0-3.34-7.55q-3.34-2.82-9-2.82H219.77V139h12.55Q238,139,241.22,136.25Z"/><path class="cls-3" d="M269.92,103.72a17,17,0,0,1,8.76-2.11v5.49h-1.43a13.28,13.28,0,0,0-9.17,3.08q-3.45,3.07-3.46,10.29v22.92h-5.25v-41h5.25v7.28A12.89,12.89,0,0,1,269.92,103.72Z"/><path class="cls-3" d="M286.68,111.72a17.93,17.93,0,0,1,7-7.36,19.7,19.7,0,0,1,10.1-2.6,18.44,18.44,0,0,1,10.11,2.71,15.72,15.72,0,0,1,6.12,6.91v-9h5.26v41H320V134.3a16.5,16.5,0,0,1-6.2,6.95A18.2,18.2,0,0,1,303.7,144a19.4,19.4,0,0,1-10-2.63,18.14,18.14,0,0,1-7-7.44,25.71,25.71,0,0,1,0-22.2ZM318,114.16a14.45,14.45,0,0,0-5.52-5.78,15,15,0,0,0-7.7-2,15.65,15.65,0,0,0-7.82,2,13.79,13.79,0,0,0-5.44,5.67,18.45,18.45,0,0,0-2,8.83,18.7,18.7,0,0,0,2,8.83,14,14,0,0,0,5.44,5.79,15.47,15.47,0,0,0,7.82,2,15.1,15.1,0,0,0,7.7-2,14.41,14.41,0,0,0,5.52-5.79,19.72,19.72,0,0,0,0-17.43Z"/><path class="cls-3" d="M337.21,93.5a3.75,3.75,0,0,1-1.13-2.78A3.61,3.61,0,0,1,337.21,88a3.73,3.73,0,0,1,2.7-1.09A3.77,3.77,0,0,1,342.62,88a3.64,3.64,0,0,1,1.12,2.74,3.78,3.78,0,0,1-1.12,2.78,3.73,3.73,0,0,1-2.71,1.13A3.69,3.69,0,0,1,337.21,93.5Zm5.33,8.87v41h-5.26v-41Z"/><path class="cls-3" d="M385.74,106.16q4.67,4.55,4.66,13.19v24h-5.18V120q0-6.69-3.35-10.22t-9.13-3.53a12.37,12.37,0,0,0-9.46,3.75q-3.54,3.76-3.53,11v22.39h-5.26v-41h5.26v7a13.47,13.47,0,0,1,5.63-5.75,17.31,17.31,0,0,1,8.34-2A16.48,16.48,0,0,1,385.74,106.16Z"/><path class="cls-3" d="M409.41,142a16.91,16.91,0,0,1-7.33-5.56,15.26,15.26,0,0,1-2.89-8.87h13.68a6.59,6.59,0,0,0,2,4.47,6.49,6.49,0,0,0,4.5,1.54,7.08,7.08,0,0,0,4.51-1.31,4.41,4.41,0,0,0,1.66-3.65,4.3,4.3,0,0,0-1.32-3.23,10.61,10.61,0,0,0-3.23-2.1,51.68,51.68,0,0,0-5.45-1.88,58.62,58.62,0,0,1-8.34-3.16,15.41,15.41,0,0,1-5.56-4.65,13,13,0,0,1-2.33-8,13.83,13.83,0,0,1,5.34-11.54q5.32-4.17,13.9-4.17t14.05,4.17a15,15,0,0,1,5.71,11.61h-13.9a5.46,5.46,0,0,0-1.88-4,6.59,6.59,0,0,0-4.43-1.46,5.5,5.5,0,0,0-3.76,1.24,4.77,4.77,0,0,0,1,7.55,39.16,39.16,0,0,0,7.51,3.08,69.32,69.32,0,0,1,8.3,3.3,15.92,15.92,0,0,1,5.53,4.59,12.27,12.27,0,0,1,2.32,7.74,15.19,15.19,0,0,1-2.29,8.19,16.12,16.12,0,0,1-6.65,5.86,22.76,22.76,0,0,1-10.29,2.18A27.19,27.19,0,0,1,409.41,142Z"/><path class="cls-3" d="M470.27,132.49v10.9h-6.54c-4.65,0-8.29-1.14-10.89-3.42s-3.91-6-3.91-11.16V112.13h-5.11V101.46h5.11V91.24h12.85v10.22h8.42v10.67h-8.42V129a3.52,3.52,0,0,0,.9,2.71,4.41,4.41,0,0,0,3,.82Z"/><path class="cls-3" d="M485.41,141.36a19.28,19.28,0,0,1-7.74-7.51,22.46,22.46,0,0,1-2.82-11.42A22.23,22.23,0,0,1,477.71,111a19.43,19.43,0,0,1,7.81-7.55,24.82,24.82,0,0,1,22.24,0,19.45,19.45,0,0,1,7.82,7.55,22.32,22.32,0,0,1,2.85,11.39,22,22,0,0,1-2.89,11.38,19.56,19.56,0,0,1-7.89,7.55A23.62,23.62,0,0,1,496.49,144,23.19,23.19,0,0,1,485.41,141.36Zm17.36-11.19c1.72-1.81,2.59-4.39,2.59-7.74s-.84-5.94-2.52-7.74a8.52,8.52,0,0,0-12.43,0c-1.66,1.78-2.48,4.37-2.48,7.78s.81,5.93,2.44,7.74a7.91,7.91,0,0,0,6.12,2.7A8.38,8.38,0,0,0,502.77,130.17Z"/><path class="cls-3" d="M543.75,103a14.63,14.63,0,0,1,7.52-2v13.6h-3.53q-4.82,0-7.22,2.07c-1.6,1.38-2.4,3.79-2.4,7.25v19.46H525.27V101.46h12.85v7A17,17,0,0,1,543.75,103Z"/><path class="cls-3" d="M623.36,105.75Q628,110.48,628,118.9v24.49H615.21V120.62a8.7,8.7,0,0,0-2.14-6.27,9,9,0,0,0-11.8,0,8.65,8.65,0,0,0-2.14,6.27v22.77H586.36V120.62a8.66,8.66,0,0,0-2.15-6.27,8.94,8.94,0,0,0-11.79,0,8.65,8.65,0,0,0-2.14,6.27v22.77H557.43V101.46h12.85v5.26a13.75,13.75,0,0,1,5.11-4.17,16.13,16.13,0,0,1,7.13-1.54,17.41,17.41,0,0,1,8.46,2,14.48,14.48,0,0,1,5.82,5.79,16.77,16.77,0,0,1,5.94-5.64,16,16,0,0,1,8.19-2.18Q618.73,101,623.36,105.75Z"/><path class="cls-3" d="M367.85,162.15a8.39,8.39,0,0,1,3.25-3.4,9.15,9.15,0,0,1,4.67-1.2,8.57,8.57,0,0,1,4.52,1.21,7.44,7.44,0,0,1,3,3.17V151.08h2.43V176.8h-2.43v-4.24a7.35,7.35,0,0,1-2.85,3.25,8.43,8.43,0,0,1-4.66,1.27,9.07,9.07,0,0,1-4.68-1.22,8.52,8.52,0,0,1-3.23-3.44,11,11,0,0,1-1.16-5.14A10.67,10.67,0,0,1,367.85,162.15Zm14.46,1.13a6.75,6.75,0,0,0-2.56-2.68,7,7,0,0,0-3.56-.93,7.22,7.22,0,0,0-3.61.9,6.37,6.37,0,0,0-2.52,2.62,8.49,8.49,0,0,0-.92,4.09,8.58,8.58,0,0,0,.92,4.08,6.47,6.47,0,0,0,2.52,2.68,7.13,7.13,0,0,0,3.61.92,6.89,6.89,0,0,0,3.56-.94,6.75,6.75,0,0,0,2.56-2.68,9.11,9.11,0,0,0,0-8.06Z"/><path class="cls-3" d="M408.34,168.25H392.59a7.54,7.54,0,0,0,1.05,3.68,6.16,6.16,0,0,0,2.46,2.32,7.27,7.27,0,0,0,3.34.78,6.66,6.66,0,0,0,4-1.15,5.36,5.36,0,0,0,2.14-3.09h2.57a8,8,0,0,1-3,4.53,9.11,9.11,0,0,1-5.72,1.76,9.61,9.61,0,0,1-4.8-1.2,8.43,8.43,0,0,1-3.31-3.41,10.63,10.63,0,0,1-1.2-5.16,10.88,10.88,0,0,1,1.18-5.18,8.26,8.26,0,0,1,3.3-3.4,9.71,9.71,0,0,1,4.83-1.18,9.21,9.21,0,0,1,4.74,1.18,8.17,8.17,0,0,1,3.13,3.18,9.07,9.07,0,0,1,1.1,4.43C408.41,167.17,408.38,167.81,408.34,168.25Zm-3.25-5.6a5.77,5.77,0,0,0-2.42-2.25,7.34,7.34,0,0,0-3.33-.77,6.65,6.65,0,0,0-4.63,1.74,7,7,0,0,0-2.12,4.9h13.35A6.81,6.81,0,0,0,405.09,162.65Z"/><path class="cls-3" d="M419.6,174.44,426,157.82h2.57l-7.61,19h-2.74l-7.61-19h2.6Z"/><path class="cls-3" d="M442.59,175.57a5.5,5.5,0,0,1-2.31-4.12h2.5a3.59,3.59,0,0,0,1.51,2.59,5.91,5.91,0,0,0,3.6,1,4.77,4.77,0,0,0,3.11-.94,2.92,2.92,0,0,0,1.13-2.33,2.16,2.16,0,0,0-.63-1.6,4.48,4.48,0,0,0-1.58-1,26.28,26.28,0,0,0-2.59-.78,26.5,26.5,0,0,1-3.44-1.11,5.82,5.82,0,0,1-2.24-1.65,4.77,4.77,0,0,1-.09-5.51,5.7,5.7,0,0,1,2.37-1.88,8.3,8.3,0,0,1,3.47-.69,7.54,7.54,0,0,1,4.94,1.54,5.61,5.61,0,0,1,2,4.26h-2.43a3.72,3.72,0,0,0-1.3-2.69,4.88,4.88,0,0,0-3.29-1,4.82,4.82,0,0,0-3,.87,2.62,2.62,0,0,0-1.14,2.15,2.55,2.55,0,0,0,.67,1.83,4.65,4.65,0,0,0,1.69,1.11c.67.27,1.57.56,2.71.89a24.92,24.92,0,0,1,3.27,1.08,5.58,5.58,0,0,1,2.08,1.52,4.16,4.16,0,0,1,.91,2.68,4.64,4.64,0,0,1-.84,2.73,5.58,5.58,0,0,1-2.33,1.89,8,8,0,0,1-3.44.7A8.85,8.85,0,0,1,442.59,175.57Z"/><path class="cls-3" d="M462.28,159.87v11.79a3.37,3.37,0,0,0,.66,2.39,3.19,3.19,0,0,0,2.32.66h2.23v2.09h-2.61a5.34,5.34,0,0,1-3.82-1.2,5.25,5.25,0,0,1-1.25-3.94V159.87h-2.64v-2.05h2.64v-4.76h2.47v4.76h5.21v2.05Z"/><path class="cls-3" d="M487.92,157.82v19h-2.43v-3.34a5.77,5.77,0,0,1-2.57,2.71,8,8,0,0,1-3.89.94,7.62,7.62,0,0,1-5.56-2.1,8.12,8.12,0,0,1-2.16-6.1V157.82h2.4v10.81a6.58,6.58,0,0,0,1.55,4.73,5.51,5.51,0,0,0,4.22,1.63,5.75,5.75,0,0,0,4.38-1.73,7.21,7.21,0,0,0,1.63-5.11V157.82Z"/><path class="cls-3" d="M493.55,162.15a8.39,8.39,0,0,1,3.25-3.4,9.16,9.16,0,0,1,4.68-1.2,8.54,8.54,0,0,1,4.51,1.21,7.44,7.44,0,0,1,3,3.17V151.08h2.43V176.8H509v-4.24a7.35,7.35,0,0,1-2.85,3.25,8.41,8.41,0,0,1-4.66,1.27,9,9,0,0,1-4.67-1.22,8.38,8.38,0,0,1-3.23-3.44,11.81,11.81,0,0,1,0-10.27ZM508,163.28a6.79,6.79,0,0,0-2.55-2.68,7,7,0,0,0-3.57-.93,7.24,7.24,0,0,0-3.61.9,6.37,6.37,0,0,0-2.52,2.62,8.6,8.6,0,0,0-.92,4.09,8.7,8.7,0,0,0,.92,4.08,6.47,6.47,0,0,0,2.52,2.68,7.15,7.15,0,0,0,3.61.92,7,7,0,0,0,3.57-.94,6.79,6.79,0,0,0,2.55-2.68,9.11,9.11,0,0,0,0-8.06Z"/><path class="cls-3" d="M516.91,153.72a1.71,1.71,0,0,1-.52-1.28,1.67,1.67,0,0,1,.52-1.27,1.81,1.81,0,0,1,2.5,0,1.67,1.67,0,0,1,.52,1.27,1.71,1.71,0,0,1-.52,1.28,1.76,1.76,0,0,1-2.5,0Zm2.47,4.1v19h-2.44v-19Z"/><path class="cls-3" d="M528.39,175.88a8.7,8.7,0,0,1-3.37-3.41,11.36,11.36,0,0,1,0-10.32,8.64,8.64,0,0,1,3.41-3.4,10.34,10.34,0,0,1,9.67,0,8.52,8.52,0,0,1,3.41,3.4,10.42,10.42,0,0,1,1.23,5.16,10.28,10.28,0,0,1-1.25,5.15,8.64,8.64,0,0,1-3.44,3.42,10,10,0,0,1-4.86,1.2A9.68,9.68,0,0,1,528.39,175.88Zm8.29-1.77a6.49,6.49,0,0,0,2.59-2.58,8.31,8.31,0,0,0,1-4.22,8.44,8.44,0,0,0-1-4.22,6.42,6.42,0,0,0-2.57-2.57,7.53,7.53,0,0,0-7,0,6.27,6.27,0,0,0-2.56,2.57,9.85,9.85,0,0,0,0,8.44,6.32,6.32,0,0,0,2.54,2.58,7.49,7.49,0,0,0,6.93,0Z"/><path class="cls-2" d="M557.19,158.22a11.32,11.32,0,0,1,4.27-4.41,11.82,11.82,0,0,1,6-1.58,12.29,12.29,0,0,1,7,1.93,11,11,0,0,1,4.22,5.44h-2.85a8.41,8.41,0,0,0-3.18-3.86,10.08,10.08,0,0,0-10-.14,8.61,8.61,0,0,0-3.36,3.6,12.69,12.69,0,0,0,0,10.86,8.74,8.74,0,0,0,3.36,3.58,10.14,10.14,0,0,0,10-.12,8.39,8.39,0,0,0,3.18-3.81h2.85a10.84,10.84,0,0,1-4.24,5.39,12.44,12.44,0,0,1-7,1.91,11.82,11.82,0,0,1-6-1.58,11.36,11.36,0,0,1-4.27-4.4,13.85,13.85,0,0,1,0-12.81Z"/><path class="cls-2" d="M607.27,152.82v24h-2.44V157.65l-8.54,19.15h-1.78L586,157.72V176.8h-2.43v-24h2.57l9.28,20.78,9.28-20.78Z"/><path class="cls-2" d="M615.94,176.21a6.93,6.93,0,0,1-2.87-2.33,6.2,6.2,0,0,1-1.11-3.34h2.57a4.91,4.91,0,0,0,1.56,3.11,6.75,6.75,0,0,0,8,.07,4.08,4.08,0,0,0,1.44-3.21,3.77,3.77,0,0,0-.8-2.52,4.91,4.91,0,0,0-2-1.43,31.39,31.39,0,0,0-3.26-1,27.72,27.72,0,0,1-3.86-1.29,6,6,0,0,1-2.43-1.94,5.72,5.72,0,0,1-1-3.58,6,6,0,0,1,1-3.36,6.55,6.55,0,0,1,2.75-2.31,9.5,9.5,0,0,1,4.06-.83,8.46,8.46,0,0,1,5.44,1.65,6.2,6.2,0,0,1,2.38,4.26h-2.64a4.36,4.36,0,0,0-1.63-2.66,6.45,6.45,0,0,0-7.41,0,3.83,3.83,0,0,0-1.45,3.18,3.7,3.7,0,0,0,.79,2.47,5.15,5.15,0,0,0,2,1.42,28.88,28.88,0,0,0,3.25,1,29.27,29.27,0,0,1,3.83,1.31,6.22,6.22,0,0,1,2.46,2,5.7,5.7,0,0,1,1,3.54,6.29,6.29,0,0,1-.9,3.24,6.61,6.61,0,0,1-2.68,2.46,8.88,8.88,0,0,1-4.24.94A10.12,10.12,0,0,1,615.94,176.21Z"/></svg>
